<svg width="57" height="57" viewBox="0 0 57 57" fill="none" xmlns="http://www.w3.org/2000/svg">
<g clip-path="url(#clip0_1_3188)">
<path d="M44.0832 41.1666H14.9165V38.25H16.3748V28.0868C16.3748 20.8127 22.2519 14.9166 29.4998 14.9166C36.7478 14.9166 42.6248 20.8127 42.6248 28.0868V38.25H44.0832V41.1666ZM19.2915 38.25H39.7082V28.0868C39.7082 22.4241 35.1378 17.8333 29.4998 17.8333C23.8619 17.8333 19.2915 22.4241 19.2915 28.0868V38.25ZM25.854 42.625H33.1457C33.1457 43.5919 32.7616 44.5192 32.0778 45.203C31.3941 45.8867 30.4668 46.2708 29.4998 46.2708C28.5329 46.2708 27.6056 45.8867 26.9218 45.203C26.2381 44.5192 25.854 43.5919 25.854 42.625Z" fill="#5ED7B3"/>
</g>
<defs>
<clipPath id="clip0_1_3188">
<rect width="35" height="35" fill="white" transform="translate(12 12)"/>
</clipPath>
</defs>
</svg>
