<svg width="57" height="57" viewBox="0 0 57 57" fill="none" xmlns="http://www.w3.org/2000/svg">
<g clip-path="url(#clip0_1_3183)">
<path d="M40.625 39.1667C40.625 39.5535 40.4714 39.9244 40.1979 40.1979C39.9244 40.4714 39.5534 40.625 39.1667 40.625H15.8333C15.4466 40.625 15.0756 40.4714 14.8021 40.1979C14.5286 39.9244 14.375 39.5535 14.375 39.1667V23.8396C14.3748 23.6174 14.4255 23.3981 14.523 23.1984C14.6206 22.9987 14.7625 22.824 14.9379 22.6875L26.6046 13.6138C26.8606 13.4146 27.1757 13.3065 27.5 13.3065C27.8243 13.3065 28.1394 13.4146 28.3954 13.6138L40.0621 22.6875C40.2375 22.824 40.3794 22.9987 40.477 23.1984C40.5745 23.3981 40.6252 23.6174 40.625 23.8396V39.1667Z" stroke="#5ED7B3" stroke-width="3"/>
</g>
<defs>
<clipPath id="clip0_1_3183">
<rect width="35" height="35" fill="white" transform="translate(10 10)"/>
</clipPath>
</defs>
</svg>
