<svg width="57" height="57" viewBox="0 0 57 57" fill="none" xmlns="http://www.w3.org/2000/svg">
<g clip-path="url(#clip0_1_3164)">
<path d="M40.625 36.6667C40.625 37.0535 40.4714 37.4244 40.1979 37.6979C39.9244 37.9714 39.5534 38.125 39.1667 38.125H15.8333C15.4466 38.125 15.0756 37.9714 14.8021 37.6979C14.5286 37.4244 14.375 37.0535 14.375 36.6667V21.3396C14.3748 21.1174 14.4255 20.8981 14.523 20.6984C14.6206 20.4987 14.7625 20.324 14.9379 20.1875L26.6046 11.1138C26.8606 10.9146 27.1757 10.8065 27.5 10.8065C27.8243 10.8065 28.1394 10.9146 28.3954 11.1138L40.0621 20.1875C40.2375 20.324 40.3794 20.4987 40.477 20.6984C40.5745 20.8981 40.6252 21.1174 40.625 21.3396V36.6667Z" fill="#5ED7B3"/>
</g>
<defs>
<clipPath id="clip0_1_3164">
<rect width="35" height="35" fill="white" transform="translate(10 7.5)"/>
</clipPath>
</defs>
</svg>
