<svg width="43" height="43" viewBox="0 0 43 43" fill="none" xmlns="http://www.w3.org/2000/svg">
<path d="M3.58343 30.315V35.69C3.58141 36.189 3.68362 36.6829 3.88352 37.1401C4.08342 37.5972 4.37661 38.0077 4.74429 38.345C5.11198 38.6823 5.54607 38.9391 6.01876 39.099C6.49144 39.2588 6.99231 39.3182 7.48927 39.2733C13.0025 38.6742 18.2984 36.7903 22.9514 33.7729C27.2803 31.0221 30.9505 27.3519 33.7013 23.0229C36.7293 18.3488 38.6137 13.0272 39.2018 7.48914C39.2465 6.99368 39.1877 6.49433 39.0289 6.02288C38.8701 5.55143 38.6149 5.11821 38.2795 4.75079C37.9441 4.38338 37.5359 4.08982 37.0808 3.88882C36.6257 3.68782 36.1338 3.58377 35.6363 3.5833H30.2613C29.3918 3.57475 28.5489 3.88265 27.8896 4.44963C27.2303 5.01661 26.7997 5.80398 26.678 6.66497C26.4512 8.38509 26.0304 10.074 25.4238 11.6996C25.1828 12.3408 25.1306 13.0378 25.2735 13.7078C25.4164 14.3778 25.7484 14.9928 26.2301 15.48L28.5055 17.7554C25.955 22.2409 22.241 25.9549 17.7555 28.5054L15.4801 26.23C14.993 25.7483 14.3779 25.4163 13.7079 25.2734C13.0379 25.1305 12.341 25.1827 11.6997 25.4237C10.0742 26.0303 8.38522 26.451 6.6651 26.6779C5.79477 26.8007 4.99992 27.239 4.43173 27.9096C3.86353 28.5803 3.56163 29.4363 3.58343 30.315Z" stroke="#5ED7B3" stroke-width="4" stroke-linecap="round" stroke-linejoin="round"/>
<circle cx="7" cy="7" r="7" transform="matrix(-1 0 0 1 18 25)" fill="#5ED7B3"/>
<circle cx="4.5" cy="4.5" r="4.5" transform="matrix(-1 0 0 1 36 14)" fill="#5ED7B3"/>
<rect width="6.56224" height="20.5124" transform="matrix(-0.67552 -0.737342 -0.737342 0.67552 33.5576 22.9821)" fill="#5ED7B3"/>
<circle cx="6.5" cy="6.5" r="6.5" transform="matrix(-1 0 0 1 39 4)" fill="#5ED7B3"/>
</svg>
