<svg width="57" height="57" viewBox="0 0 57 57" fill="none" xmlns="http://www.w3.org/2000/svg">
<g clip-path="url(#clip0_1_3196)">
<path d="M39.1668 42.0834H36.2502V39.1667C36.2502 38.0064 35.7892 36.8936 34.9688 36.0731C34.1483 35.2526 33.0355 34.7917 31.8752 34.7917H23.1252C21.9648 34.7917 20.852 35.2526 20.0316 36.0731C19.2111 36.8936 18.7502 38.0064 18.7502 39.1667V42.0834H15.8335V39.1667C15.8335 37.2328 16.6017 35.3782 17.9692 34.0107C19.3366 32.6433 21.1913 31.875 23.1252 31.875H31.8752C33.809 31.875 35.6637 32.6433 37.0311 34.0107C38.3986 35.3782 39.1668 37.2328 39.1668 39.1667V42.0834ZM27.5002 28.9584C26.3511 28.9584 25.2133 28.732 24.1517 28.2923C23.0901 27.8526 22.1255 27.2081 21.313 26.3956C20.5005 25.583 19.8559 24.6185 19.4162 23.5569C18.9765 22.4953 18.7502 21.3574 18.7502 20.2084C18.7502 19.0593 18.9765 17.9215 19.4162 16.8599C19.8559 15.7983 20.5005 14.8337 21.313 14.0212C22.1255 13.2087 23.0901 12.5642 24.1517 12.1244C25.2133 11.6847 26.3511 11.4584 27.5002 11.4584C29.8208 11.4584 32.0464 12.3802 33.6873 14.0212C35.3283 15.6621 36.2502 17.8877 36.2502 20.2084C36.2502 22.529 35.3283 24.7546 33.6873 26.3956C32.0464 28.0365 29.8208 28.9584 27.5002 28.9584ZM27.5002 26.0417C29.0473 26.0417 30.531 25.4271 31.625 24.3332C32.7189 23.2392 33.3335 21.7555 33.3335 20.2084C33.3335 18.6613 32.7189 17.1775 31.625 16.0836C30.531 14.9896 29.0473 14.375 27.5002 14.375C25.9531 14.375 24.4693 14.9896 23.3754 16.0836C22.2814 17.1775 21.6668 18.6613 21.6668 20.2084C21.6668 21.7555 22.2814 23.2392 23.3754 24.3332C24.4693 25.4271 25.9531 26.0417 27.5002 26.0417Z" fill="#5ED7B3"/>
</g>
<circle cx="27.5" cy="20.5" r="6.5" fill="#5ED7B3"/>
<rect x="18" y="34" width="19" height="8" fill="#5ED7B3"/>
<defs>
<clipPath id="clip0_1_3196">
<rect width="35" height="35" fill="white" transform="translate(10 10)"/>
</clipPath>
</defs>
</svg>
